<svg width="72" height="72" viewBox="0 0 72 72" fill="none" xmlns="http://www.w3.org/2000/svg">
<path fill-rule="evenodd" clip-rule="evenodd" d="M36 72C55.8822 72 72 55.8822 72 36C72 16.1177 55.8822 0 36 0C16.1177 0 0 16.1177 0 36C0 55.8822 16.1177 72 36 72ZM36 63.9441C51.4331 63.9441 63.9441 51.4331 63.9441 36C63.9441 20.5669 51.4331 8.05594 36 8.05594C20.5669 8.05594 8.05594 20.5669 8.05594 36C8.05594 51.4331 20.5669 63.9441 36 63.9441Z" fill="#F0AD00"/>
<path d="M25.9761 39.4597C25.4275 38.6618 25.1532 37.6395 25.1532 36.3927C25.1532 35.0961 25.4275 34.0426 25.9761 33.2322C26.6119 32.2847 27.547 31.8109 28.7813 31.8109C30.0156 31.8109 30.9506 32.2847 31.5865 33.2322C32.1351 34.0426 32.4093 35.0961 32.4093 36.3927C32.4093 37.6395 32.1351 38.6618 31.5865 39.4597C30.9382 40.3948 30.0031 40.8623 28.7813 40.8623C27.5595 40.8623 26.6244 40.3948 25.9761 39.4597Z" fill="#F0AD00"/>
<path fill-rule="evenodd" clip-rule="evenodd" d="M35.7662 61.7143C50.0969 61.7143 61.7143 50.0969 61.7143 35.7662C61.7143 21.4355 50.0969 9.81818 35.7662 9.81818C21.4355 9.81818 9.81818 21.4355 9.81818 35.7662C9.81818 50.0969 21.4355 61.7143 35.7662 61.7143ZM23.9564 31.3808C22.7969 32.6774 22.2171 34.348 22.2171 36.3927C22.2171 38.3875 22.7969 40.027 23.9564 41.3112C25.1657 42.6577 26.774 43.3309 28.7813 43.3309C30.7886 43.3309 32.3969 42.6577 33.6062 41.3112C34.7657 40.027 35.3455 38.3875 35.3455 36.3927C35.3455 34.348 34.7657 32.6774 33.6062 31.3808C32.4094 30.0218 30.801 29.3423 28.7813 29.3423C26.7616 29.3423 25.1532 30.0218 23.9564 31.3808ZM47.0024 41.4982L47.3016 43.013H49.1717V35.7943H43.5613V37.9823H46.5161C46.3416 39.9023 45.2818 40.8623 43.3369 40.8623C42.1151 40.8623 41.18 40.3948 40.5317 39.4597C39.9831 38.6618 39.7088 37.6395 39.7088 36.3927C39.7088 35.0961 39.9831 34.0426 40.5317 33.2322C41.1675 32.2847 42.1026 31.8109 43.3369 31.8109C44.0475 31.8109 44.6522 32.0042 45.1509 32.3906C45.6621 32.7771 45.9987 33.3319 46.1608 34.0551H48.966C48.8164 32.5964 48.1805 31.4306 47.0585 30.5579C46.0112 29.7475 44.7707 29.3423 43.3369 29.3423C41.3172 29.3423 39.7088 30.0218 38.512 31.3808C37.3525 32.6774 36.7727 34.348 36.7727 36.3927C36.7727 38.3875 37.3525 40.027 38.512 41.3112C39.7213 42.6577 41.3296 43.3309 43.3369 43.3309C44.833 43.3309 46.0548 42.72 47.0024 41.4982Z" fill="#F0AD00"/>
</svg>
