<svg width="291" height="31" viewBox="0 0 291 31" fill="none" xmlns="http://www.w3.org/2000/svg">
<path d="M0.52 15.84C0.52 11.4667 1.76 7.89333 4.24 5.12C6.8 2.21333 10.24 0.76 14.56 0.76C18.88 0.76 22.32 2.21333 24.88 5.12C27.36 7.89333 28.6 11.4667 28.6 15.84C28.6 20.1067 27.36 23.6133 24.88 26.36C22.2933 29.24 18.8533 30.68 14.56 30.68C10.2667 30.68 6.82667 29.24 4.24 26.36C1.76 23.6133 0.52 20.1067 0.52 15.84ZM6.8 15.84C6.8 18.5067 7.38667 20.6933 8.56 22.4C9.94667 24.4 11.9467 25.4 14.56 25.4C17.1733 25.4 19.1733 24.4 20.56 22.4C21.7333 20.6933 22.32 18.5067 22.32 15.84C22.32 13.0667 21.7333 10.8133 20.56 9.08C19.2 7.05333 17.2 6.04 14.56 6.04C11.92 6.04 9.92 7.05333 8.56 9.08C7.38667 10.8133 6.8 13.0667 6.8 15.84ZM45.1728 22V19.88C44.7195 20.28 43.7328 20.5867 42.2128 20.8C40.4795 21.0667 39.3328 21.32 38.7728 21.56C37.6528 22.0667 37.0928 22.92 37.0928 24.12C37.0928 25.88 38.2528 26.76 40.5728 26.76C43.6395 26.76 45.1728 25.1733 45.1728 22ZM37.7328 15.68H32.0528C32.2128 13.2267 33.2928 11.4133 35.2928 10.24C36.9461 9.25333 39.1061 8.76 41.7728 8.76C47.8261 8.76 50.8528 10.72 50.8528 14.64V25.4C50.8528 27.6933 51.0928 29.2267 51.5728 30H45.8128C45.5728 29.2533 45.4395 28.5867 45.4128 28C43.7861 29.7067 41.4661 30.56 38.4528 30.56C36.3728 30.56 34.7061 30.0533 33.4528 29.04C32.0928 27.9467 31.4128 26.3867 31.4128 24.36C31.4128 22.2533 32.1461 20.68 33.6128 19.64C34.6795 18.92 36.2928 18.4 38.4528 18.08C41.5195 17.6533 43.0795 17.4267 43.1328 17.4C44.4928 17.0533 45.1728 16.3733 45.1728 15.36C45.1728 14.24 44.7995 13.4667 44.0528 13.04C43.5195 12.72 42.6661 12.56 41.4928 12.56C39.1728 12.56 37.9195 13.6 37.7328 15.68ZM55.7816 30V1.44H61.4616V16.76L68.6216 9.32H75.3416L67.5416 16.92L76.2216 30H69.3416L63.6616 20.76L61.4616 22.88V30H55.7816ZM78.3903 30V1.44H84.0703V30H78.3903ZM101.423 22V19.88C100.969 20.28 99.9828 20.5867 98.4628 20.8C96.7295 21.0667 95.5828 21.32 95.0228 21.56C93.9028 22.0667 93.3428 22.92 93.3428 24.12C93.3428 25.88 94.5028 26.76 96.8228 26.76C99.8895 26.76 101.423 25.1733 101.423 22ZM93.9828 15.68H88.3028C88.4628 13.2267 89.5428 11.4133 91.5428 10.24C93.1961 9.25333 95.3561 8.76 98.0228 8.76C104.076 8.76 107.103 10.72 107.103 14.64V25.4C107.103 27.6933 107.343 29.2267 107.823 30H102.063C101.823 29.2533 101.689 28.5867 101.663 28C100.036 29.7067 97.7161 30.56 94.7028 30.56C92.6228 30.56 90.9561 30.0533 89.7028 29.04C88.3428 27.9467 87.6628 26.3867 87.6628 24.36C87.6628 22.2533 88.3961 20.68 89.8628 19.64C90.9295 18.92 92.5428 18.4 94.7028 18.08C97.7695 17.6533 99.3295 17.4267 99.3828 17.4C100.743 17.0533 101.423 16.3733 101.423 15.36C101.423 14.24 101.049 13.4667 100.303 13.04C99.7695 12.72 98.9161 12.56 97.7428 12.56C95.4228 12.56 94.1695 13.6 93.9828 15.68ZM111.512 30V9.32H116.912V12.2H117.032C118.445 9.90667 120.552 8.76 123.352 8.76C126.205 8.76 128.218 9.53333 129.392 11.08C130.405 12.4133 130.912 14.48 130.912 17.28V30H125.232V18.32C125.232 14.9333 124.018 13.24 121.592 13.24C120.045 13.24 118.925 13.7067 118.232 14.64C117.538 15.5733 117.192 17.08 117.192 19.16V30H111.512ZM149.983 30V27.36H149.903C148.649 29.4933 146.556 30.56 143.622 30.56C140.663 30.56 138.343 29.4267 136.663 27.16C135.116 25.1067 134.343 22.5467 134.343 19.48C134.343 16.4933 135.116 14.0133 136.663 12.04C138.343 9.85333 140.623 8.76 143.503 8.76C146.276 8.76 148.329 9.78667 149.663 11.84H149.703V1.44H155.383V30H149.983ZM149.903 19.6C149.903 17.7067 149.556 16.1867 148.863 15.04C148.009 13.7067 146.729 13.04 145.023 13.04C143.289 13.04 141.996 13.72 141.143 15.08C140.396 16.2267 140.023 17.7467 140.023 19.64C140.023 21.4533 140.423 22.96 141.223 24.16C142.103 25.5733 143.369 26.28 145.023 26.28C148.276 26.28 149.903 24.0533 149.903 19.6Z" fill="white"/>
<path d="M181.556 30L180.916 26.76C178.889 29.3733 176.276 30.68 173.076 30.68C168.782 30.68 165.342 29.24 162.756 26.36C160.276 23.6133 159.036 20.1067 159.036 15.84C159.036 11.4667 160.276 7.89333 162.756 5.12C165.316 2.21333 168.756 0.76 173.076 0.76C176.142 0.76 178.796 1.62667 181.036 3.36C183.436 5.22667 184.796 7.72 185.116 10.84H179.116C178.769 9.29333 178.049 8.10667 176.956 7.28C175.889 6.45333 174.596 6.04 173.076 6.04C170.436 6.04 168.436 7.05333 167.076 9.08C165.902 10.8133 165.316 13.0667 165.316 15.84C165.316 18.5067 165.902 20.6933 167.076 22.4C168.462 24.4 170.462 25.4 173.076 25.4C177.236 25.4 179.502 23.3467 179.876 19.24H173.556V14.56H185.556V30H181.556ZM202.907 22V19.88C202.454 20.28 201.467 20.5867 199.947 20.8C198.214 21.0667 197.067 21.32 196.507 21.56C195.387 22.0667 194.827 22.92 194.827 24.12C194.827 25.88 195.987 26.76 198.307 26.76C201.374 26.76 202.907 25.1733 202.907 22ZM195.467 15.68H189.787C189.947 13.2267 191.027 11.4133 193.027 10.24C194.681 9.25333 196.841 8.76 199.507 8.76C205.561 8.76 208.587 10.72 208.587 14.64V25.4C208.587 27.6933 208.827 29.2267 209.307 30H203.547C203.307 29.2533 203.174 28.5867 203.147 28C201.521 29.7067 199.201 30.56 196.187 30.56C194.107 30.56 192.441 30.0533 191.187 29.04C189.827 27.9467 189.147 26.3867 189.147 24.36C189.147 22.2533 189.881 20.68 191.347 19.64C192.414 18.92 194.027 18.4 196.187 18.08C199.254 17.6533 200.814 17.4267 200.867 17.4C202.227 17.0533 202.907 16.3733 202.907 15.36C202.907 14.24 202.534 13.4667 201.787 13.04C201.254 12.72 200.401 12.56 199.227 12.56C196.907 12.56 195.654 13.6 195.467 15.68ZM213.156 30V9.32H218.516V12.12H218.596C220.169 9.88 222.276 8.76 224.916 8.76C227.903 8.76 229.916 9.90667 230.956 12.2C232.476 9.90667 234.556 8.76 237.196 8.76C242.236 8.76 244.756 11.2267 244.756 16.16V30H239.076V18.28C239.076 16.6 238.903 15.4133 238.556 14.72C238.049 13.7333 237.063 13.24 235.596 13.24C233.063 13.24 231.796 14.9867 231.796 18.48V30H226.116V18.4C226.116 16.6667 225.996 15.5067 225.756 14.92C225.276 13.8 224.249 13.24 222.676 13.24C221.796 13.24 221.023 13.5333 220.356 14.12C219.343 14.9467 218.836 16.24 218.836 18V30H213.156ZM268.846 21.04H253.926C254.086 24.5333 255.779 26.28 259.006 26.28C260.099 26.28 261.086 25.9867 261.966 25.4C262.793 24.8933 263.299 24.2933 263.486 23.6H268.486C266.966 28.24 263.739 30.56 258.806 30.56C255.579 30.56 253.006 29.56 251.086 27.56C249.193 25.5333 248.246 22.9067 248.246 19.68C248.246 16.5333 249.219 13.9333 251.166 11.88C253.139 9.8 255.686 8.76 258.806 8.76C262.166 8.76 264.766 10.0133 266.606 12.52C268.313 14.8133 269.059 17.6533 268.846 21.04ZM253.926 17.44H263.166C262.633 14.5067 261.126 13.04 258.646 13.04C257.046 13.04 255.819 13.5733 254.966 14.64C254.326 15.44 253.979 16.3733 253.926 17.44ZM271.215 23.28H276.615C276.641 24.4533 277.095 25.3467 277.975 25.96C278.748 26.4933 279.748 26.76 280.975 26.76C281.961 26.76 282.788 26.5733 283.455 26.2C284.281 25.72 284.695 25.0267 284.695 24.12C284.695 23.32 284.135 22.68 283.015 22.2C282.215 21.8533 280.628 21.4267 278.255 20.92C276.228 20.4933 274.721 19.9333 273.735 19.24C272.375 18.3333 271.695 17.0533 271.695 15.4C271.695 10.9733 274.695 8.76 280.695 8.76C286.401 8.76 289.441 10.96 289.815 15.36H284.415C284.281 13.4933 282.988 12.56 280.535 12.56C278.428 12.56 277.375 13.2 277.375 14.48C277.375 15.36 278.041 16.04 279.375 16.52C279.535 16.5733 281.015 16.92 283.815 17.56C285.868 18.04 287.375 18.6267 288.335 19.32C289.695 20.28 290.375 21.6267 290.375 23.36C290.375 25.8667 289.388 27.7467 287.415 29C285.788 30.04 283.628 30.56 280.935 30.56C278.241 30.56 276.055 30.0267 274.375 28.96C272.375 27.7067 271.321 25.8133 271.215 23.28Z" fill="#F0AD00"/>
</svg>
